HIERARCHY
ROOT Hips
{
	OFFSET 0.000000 89.005402 0.000000
	CHANNELS 6 Xposition Yposition Zposition Xrotation Yrotation Zrotation
	JOINT Spine
	{
		OFFSET 0.116900 10.681000 0.373400
		CHANNELS 3 Xrotation Yrotation Zrotation
		JOINT Spine1
		{
			OFFSET 0.000000 13.840401 0.053500
			CHANNELS 3 Xrotation Yrotation Zrotation
			JOINT Spine2
			{
				OFFSET 0.000000 14.712700 -0.366200
				CHANNELS 3 Xrotation Yrotation Zrotation
				JOINT Neck
				{
					OFFSET 0.000000 35.415497 -3.314200
					CHANNELS 3 Xrotation Yrotation Zrotation
					JOINT Head
					{
						OFFSET 0.000000 16.899200 1.218300
						CHANNELS 3 Xrotation Yrotation Zrotation
						JOINT HeadTop_End
						{
							OFFSET 0.000000 22.206207 2.192500
							CHANNELS 3 Xrotation Yrotation Zrotation
							End Site
							{
								OFFSET 0.000000 22.314178 0.000000
							}
						}
					}
				}
				JOINT LeftShoulder
				{
					OFFSET 12.896400 26.716293 -4.548400
					CHANNELS 3 Xrotation Yrotation Zrotation
					JOINT LeftArm
					{
						OFFSET 19.027000 -4.857010 -1.718400
						CHANNELS 3 Xrotation Yrotation Zrotation
						JOINT LeftForeArm
						{
							OFFSET 24.179897 0.000000 0.000000
							CHANNELS 3 Xrotation Yrotation Zrotation
							JOINT LeftHand
							{
								OFFSET 27.156403 0.000000 0.000000
								CHANNELS 3 Xrotation Yrotation Zrotation
								JOINT LeftHandIndex1
								{
									OFFSET 16.441200 0.000000 0.000000
									CHANNELS 3 Xrotation Yrotation Zrotation
									JOINT LeftHandIndex2
									{
										OFFSET 4.821899 0.000000 0.000000
										CHANNELS 3 Xrotation Yrotation Zrotation
										JOINT LeftHandIndex3
										{
											OFFSET 6.386497 0.000000 0.000000
											CHANNELS 3 Xrotation Yrotation Zrotation
											JOINT LeftHandIndex4
											{
												OFFSET 5.188988 0.000000 0.000000
												CHANNELS 3 Xrotation Yrotation Zrotation
												End Site
												{
													OFFSET -0.178703 5.185913 0.000177
												}
											}
										}
									}
								}
								JOINT LeftHandThumb1
								{
									OFFSET 6.534897 -5.032593 5.900300
									CHANNELS 3 Xrotation Yrotation Zrotation
									JOINT LeftHandThumb2
									{
										OFFSET 3.818176 -2.204422 2.204423
										CHANNELS 3 Xrotation Yrotation Zrotation
										JOINT LeftHandThumb3
										{
											OFFSET 3.252098 -1.877594 1.877601
											CHANNELS 3 Xrotation Yrotation Zrotation
											JOINT LeftHandThumb4
											{
												OFFSET 5.251778 -3.032120 3.032117
												CHANNELS 3 Xrotation Yrotation Zrotation
												End Site
												{
													OFFSET 0.000023 6.780014 0.000000
												}
											}
										}
									}
								}
							}
						}
					}
				}
				JOINT RightShoulder
				{
					OFFSET -12.896300 26.716293 -4.548400
					CHANNELS 3 Xrotation Yrotation Zrotation
					JOINT RightArm
					{
						OFFSET -19.027000 -4.857010 -1.718400
						CHANNELS 3 Xrotation Yrotation Zrotation
						JOINT RightForeArm
						{
							OFFSET -24.179897 0.000000 0.000000
							CHANNELS 3 Xrotation Yrotation Zrotation
							JOINT RightHand
							{
								OFFSET -27.156403 0.000000 0.000000
								CHANNELS 3 Xrotation Yrotation Zrotation
								JOINT RightHandThumb1
								{
									OFFSET -6.591202 -4.852203 5.988100
									CHANNELS 3 Xrotation Yrotation Zrotation
									JOINT RightHandThumb2
									{
										OFFSET -3.818176 -2.204422 2.204423
										CHANNELS 3 Xrotation Yrotation Zrotation
										JOINT RightHandThumb3
										{
											OFFSET -3.252098 -1.877594 1.877601
											CHANNELS 3 Xrotation Yrotation Zrotation
											JOINT RightHandThumb4
											{
												OFFSET -5.251778 -3.032120 3.032117
												CHANNELS 3 Xrotation Yrotation Zrotation
												End Site
												{
													OFFSET -0.000023 6.780014 0.000000
												}
											}
										}
									}
								}
								JOINT RightHandIndex1
								{
									OFFSET -16.029404 0.000000 0.000000
									CHANNELS 3 Xrotation Yrotation Zrotation
									JOINT RightHandIndex2
									{
										OFFSET -5.213303 0.000000 0.000000
										CHANNELS 3 Xrotation Yrotation Zrotation
										JOINT RightHandIndex3
										{
											OFFSET -6.386528 0.000000 0.000000
											CHANNELS 3 Xrotation Yrotation Zrotation
											JOINT RightHandIndex4
											{
												OFFSET -5.189026 0.000000 0.000000
												CHANNELS 3 Xrotation Yrotation Zrotation
												End Site
												{
													OFFSET 0.236702 5.183624 0.001972
												}
											}
										}
									}
								}
							}
						}
					}
				}
			}
		}
	}
	JOINT LeftUpLeg
	{
		OFFSET 14.073000 -7.904099 -1.463000
		CHANNELS 3 Xrotation Yrotation Zrotation
		JOINT LeftLeg
		{
			OFFSET -0.109806 -34.073280 4.093200
			CHANNELS 3 Xrotation Yrotation Zrotation
			JOINT LeftFoot
			{
				OFFSET 0.109806 -29.899420 -6.319000
				CHANNELS 3 Xrotation Yrotation Zrotation
				JOINT LeftToeBase
				{
					OFFSET 1.551100 -14.988700 20.535801
					CHANNELS 3 Xrotation Yrotation Zrotation
					JOINT LeftToe_End
					{
						OFFSET 0.221200 0.570800 13.248301
						CHANNELS 3 Xrotation Yrotation Zrotation
						End Site
						{
							OFFSET 0.000000 13.262435 0.000000
						}
					}
				}
			}
		}
	}
	JOINT RightUpLeg
	{
		OFFSET -13.839300 -7.904099 -1.463000
		CHANNELS 3 Xrotation Yrotation Zrotation
		JOINT RightLeg
		{
			OFFSET 0.109694 -34.073219 4.093300
			CHANNELS 3 Xrotation Yrotation Zrotation
			JOINT RightFoot
			{
				OFFSET -0.109694 -29.899384 -6.319200
				CHANNELS 3 Xrotation Yrotation Zrotation
				JOINT RightToeBase
				{
					OFFSET -1.551100 -14.988700 20.535801
					CHANNELS 3 Xrotation Yrotation Zrotation
					JOINT RightToe_End
					{
						OFFSET -0.221200 0.570900 13.248299
						CHANNELS 3 Xrotation Yrotation Zrotation
						End Site
						{
							OFFSET 0.000000 13.262440 0.000000
						}
					}
				}
			}
		}
	}
}
MOTION
Frames: 7
Frame Time: 0.033333
-0.384556 71.819809 -0.075042 -5.398681 -46.211984 -0.238052 9.452221 7.171201 -1.616271 2.187716 0.989896 -0.915631 2.202825 0.982778 -0.894155 0.084660 13.220554 4.538664 8.920911 20.138142 -4.130217 -0.000001 -0.000000 0.000000 1.117179 3.546349 -8.633311 -53.487013 4.935515 -51.503000 0.000258 -106.358073 0.000271 1.988605 -7.706152 -15.869262 0.255313 3.378216 -45.814348 5.654090 5.847752 -88.067441 2.162135 4.544818 -50.866369 -0.000001 0.000002 0.000005 -6.141219 -11.690805 -6.761690 9.914112 42.595525 3.409864 -0.422806 8.108098 27.509108 0.000001 -0.000000 0.000001 3.036125 13.027192 -5.371407 -48.713701 27.172832 83.457071 0.000006 105.988314 -0.000011 -8.345369 17.548108 8.775673 -7.341098 13.749656 7.412331 9.855758 -44.489093 -3.903273 -0.115768 -14.513088 -28.973878 -0.000003 -0.000003 -0.000000 -0.124377 -2.384787 45.108864 4.500583 -4.654552 88.071171 1.723228 -3.618379 50.920095 0.000001 0.000001 -0.000001 -31.861347 6.395845 19.963980 59.337487 -8.188272 3.970977 -25.244936 -6.905714 -16.448631 -1.594035 -0.000007 -0.000001 0.000000 0.000002 -0.000000 -18.986302 -11.114448 -32.040875 59.475225 -5.224286 -6.737435 -30.568925 -9.909665 26.194206 -0.013000 0.000009 -0.000003 0.000000 -0.000001 -0.000000 
-0.807936 71.200546 0.198274 -4.987304 -45.344444 0.092450 9.850582 7.579686 -2.675449 1.952943 1.036385 -0.791732 1.967664 1.036405 -0.769138 -0.038869 13.191509 4.570357 9.318635 20.138002 -4.440057 -0.000002 0.000000 0.000001 1.104630 3.831489 -8.502924 -53.065936 4.544815 -52.357864 0.000051 -107.448206 0.000057 2.444977 -7.063499 -16.554874 0.255313 3.378216 -45.814344 5.654087 5.847754 -88.067441 2.162139 4.544818 -50.866372 0.000001 -0.000000 0.000002 -6.141217 -11.690805 -6.761685 9.914102 42.595519 3.409872 -0.422805 8.108093 27.509109 -0.000003 0.000002 0.000000 3.059307 13.340074 -5.222630 -47.976953 26.633469 83.525045 -0.000082 106.456182 0.000097 -7.819144 17.817559 8.323985 -7.341098 13.749657 7.412330 9.855755 -44.489089 -3.903270 -0.115772 -14.513095 -28.973881 -0.000002 0.000001 -0.000002 -0.124377 -2.384787 45.108864 4.500579 -4.654553 88.071164 1.723228 -3.618382 50.920098 0.000001 -0.000001 0.000002 -32.702352 5.671345 19.915976 60.947158 -8.704255 4.136449 -26.262228 -6.749647 -16.410300 -1.619790 -0.000002 0.000000 0.000000 0.000002 0.000000 -19.560297 -10.757990 -31.656523 62.640580 -6.971955 -7.333659 -31.663739 -10.425422 25.709672 -2.126291 -0.000002 0.000008 -0.000000 -0.000001 -0.000000 
-1.390005 70.932663 0.691256 -4.635792 -43.959097 0.449661 10.298999 8.141801 -3.905357 1.712952 1.108654 -0.698013 1.724762 1.119836 -0.676073 -0.229851 13.156660 4.599641 9.502964 19.886142 -4.546822 -0.000001 0.000000 0.000000 1.095662 4.319113 -8.440523 -52.359165 4.149823 -53.368571 -0.000128 -108.153348 -0.000141 2.544543 -6.662807 -17.003169 0.255313 3.378216 -45.814348 5.654091 5.847750 -88.067441 2.162137 4.544816 -50.866369 0.000001 -0.000002 -0.000003 -6.141220 -11.690805 -6.761686 9.914105 42.595519 3.409870 -0.422807 8.108090 27.509111 0.000001 -0.000001 0.000002 3.118421 13.821961 -5.260452 -47.290334 25.914875 83.947540 0.000074 106.902562 -0.000048 -7.407337 17.657267 8.006745 -7.341098 13.749657 7.412333 9.855748 -44.489089 -3.903267 -0.115770 -14.513088 -28.973878 -0.000002 -0.000002 0.000002 -0.124378 -2.384786 45.108861 4.500577 -4.654555 88.071164 1.723231 -3.618380 50.920098 -0.000000 -0.000000 0.000001 -32.937539 4.959404 19.269323 61.665871 -9.104184 4.600233 -27.010354 -6.617022 -16.452053 -1.641081 -0.000000 -0.000005 -0.000000 -0.000000 -0.000000 -20.341623 -10.118066 -31.734637 66.161372 -7.692055 -7.838233 -30.446982 -11.441106 25.647499 -8.425116 -0.000022 0.000005 -0.000000 -0.000001 0.000000 
-2.129272 70.972900 1.249784 -4.327379 -41.680751 0.759592 10.774637 8.570464 -4.857698 1.443772 1.186726 -0.684341 1.456202 1.206337 -0.665250 -0.490705 13.089102 4.650293 9.422036 19.481142 -4.482848 0.000001 -0.000000 -0.000000 1.054326 4.642518 -8.004976 -51.398420 4.005374 -54.604893 -0.000037 -108.545161 -0.000034 2.549318 -6.447259 -16.862865 0.255313 3.378217 -45.814341 5.654092 5.847751 -88.067441 2.162139 4.544818 -50.866369 0.000003 0.000001 -0.000005 -6.141218 -11.690805 -6.761683 9.914106 42.595519 3.409878 -0.422807 8.108094 27.509108 -0.000001 -0.000000 0.000000 3.197955 14.441250 -5.335220 -46.909889 25.112094 84.282970 -0.000058 107.195222 0.000035 -7.031500 17.350480 8.087978 -7.341098 13.749656 7.412330 9.855748 -44.489086 -3.903268 -0.115771 -14.513090 -28.973878 -0.000002 -0.000005 0.000001 -0.124377 -2.384790 45.108864 4.500581 -4.654554 88.071164 1.723227 -3.618381 50.920098 -0.000001 0.000001 -0.000001 -32.941159 3.979491 18.154424 61.557462 -9.681581 5.337191 -27.227021 -6.541861 -16.538603 -1.660332 -0.000002 -0.000007 -0.000000 -0.000002 0.000000 -21.371107 -9.415709 -32.076740 70.362341 -9.086891 -8.531390 -27.351848 -11.349683 25.374771 -14.313365 0.000007 -0.000003 -0.000001 -0.000000 0.000000 
-3.145921 71.115967 1.881668 -3.988330 -38.716289 1.166973 11.202025 8.922677 -5.839609 1.210836 1.242793 -0.725950 1.221349 1.266654 -0.708861 -0.819755 12.979527 4.745361 9.099716 18.864163 -4.212081 -0.000001 0.000000 -0.000000 0.965190 4.440673 -6.951669 -50.498321 4.271450 -55.722104 0.000050 -108.890516 0.000058 2.543485 -6.201603 -16.877198 0.255312 3.378216 -45.814341 5.654088 5.847751 -88.067441 2.162138 4.544817 -50.866369 0.000001 0.000002 0.000001 -6.141219 -11.690803 -6.761688 9.914102 42.595522 3.409867 -0.422810 8.108096 27.509106 -0.000003 -0.000001 -0.000001 3.253195 15.035656 -5.201771 -47.056155 24.449444 84.287902 -0.000001 107.267083 -0.000011 -6.463447 17.027023 8.467383 -7.341098 13.749657 7.412331 9.855750 -44.489089 -3.903263 -0.115773 -14.513095 -28.973878 0.000001 -0.000000 0.000000 -0.124376 -2.384787 45.108864 4.500577 -4.654552 88.071164 1.723227 -3.618376 50.920098 0.000001 0.000002 0.000003 -32.851782 2.853241 16.874425 61.018533 -10.683512 6.183244 -27.221152 -6.472822 -16.622947 -1.680009 -0.000003 -0.000002 -0.000000 -0.000003 -0.000000 -22.885334 -7.795892 -33.223966 75.243577 -10.454119 -9.326950 -20.864659 -9.195473 26.468139 -19.123591 -0.000015 0.000005 -0.000000 -0.000001 0.000001 
-4.461688 71.084282 2.633323 -3.571228 -35.695579 1.782839 11.544149 9.414652 -7.043304 1.036335 1.297847 -0.738074 1.035316 1.323045 -0.721342 -1.192786 12.851935 4.849661 8.652154 18.031160 -3.677121 -0.000001 0.000000 0.000000 0.882036 3.774405 -5.748032 -50.008757 4.425128 -56.226845 0.000152 -109.398013 0.000150 2.584371 -5.729247 -17.289811 0.255314 3.378216 -45.814344 5.654090 5.847748 -88.067441 2.162137 4.544816 -50.866369 -0.000000 -0.000002 0.000000 -6.141217 -11.690803 -6.761690 9.914105 42.595525 3.409862 -0.422806 8.108093 27.509108 -0.000003 -0.000002 -0.000002 3.261504 15.437787 -4.849943 -47.802421 23.854531 83.926837 0.000057 107.109995 -0.000055 -6.140866 16.787526 9.007923 -7.341100 13.749657 7.412329 9.855754 -44.489089 -3.903267 -0.115772 -14.513085 -28.973878 -0.000002 0.000001 -0.000000 -0.124377 -2.384788 45.108864 4.500580 -4.654553 88.071164 1.723227 -3.618379 50.920098 0.000001 0.000001 0.000001 -32.804336 1.903383 15.905654 60.634424 -11.590525 6.939531 -27.568795 -6.881304 -16.961897 -1.702529 0.000015 -0.000006 -0.000000 0.000003 0.000000 -25.324726 -4.078792 -35.155025 80.464416 -8.542236 -9.816470 -10.194799 -5.590597 27.282514 -25.220409 -0.443560 5.533076 0.000000 -0.000001 -0.000001 
-6.243838 71.015915 3.600646 -3.149802 -32.838371 2.317838 11.793765 9.936505 -8.243495 0.866804 1.361042 -0.663210 0.861685 1.387414 -0.646906 -1.525381 12.755611 4.867069 8.333800 17.151268 -3.001334 -0.000001 0.000001 -0.000000 0.854371 3.107508 -5.092487 -50.302407 4.382632 -55.653816 0.000157 -109.945302 0.000152 1.978943 -5.494233 -17.931782 0.255316 3.378215 -45.814344 5.654090 5.847752 -88.067441 2.162137 4.544816 -50.866365 0.000001 -0.000000 0.000001 -6.141219 -11.690806 -6.761685 9.914108 42.595522 3.409865 -0.422808 8.108090 27.509109 -0.000002 -0.000000 -0.000001 3.267312 15.669263 -4.666060 -48.908457 23.544133 83.787918 -0.000096 106.695075 0.000097 -5.947844 16.777173 9.208770 -7.341098 13.749656 7.412327 9.855755 -44.489089 -3.903266 -0.115772 -14.513090 -28.973878 -0.000000 -0.000001 0.000001 -0.124374 -2.384787 45.108864 4.500581 -4.654552 88.071164 1.723227 -3.618386 50.920098 -0.000001 0.000000 0.000004 -32.399685 1.255027 15.807776 59.954854 -11.778587 7.592145 -28.419604 -8.407376 -18.081319 -1.730305 -0.000009 0.000001 -0.000000 0.000002 0.000000 -28.314553 0.481650 -36.188022 83.765945 -3.097887 -9.698664 1.972051 -0.479404 23.820877 -29.982321 -4.661396 18.075057 0.000000 -0.000000 0.000000 
